<svg width="811" height="399" viewBox="0 0 811 399" fill="none" xmlns="http://www.w3.org/2000/svg">
<path fill-rule="evenodd" clip-rule="evenodd" d="M108.907 232.35V127.781H72.8331V230.751C72.8331 240.036 70.9305 246.772 67.1249 250.957C63.3197 255.143 58.0685 257.236 51.3711 257.236C45.7393 257.236 40.6021 255.828 35.9601 253.012C31.3173 250.196 26.7132 246.277 22.1468 241.254L0 265.912C5.47953 272.457 12.4433 278.089 20.8909 282.807C29.3384 287.526 39.8032 289.885 52.2847 289.885C60.656 289.885 68.3427 288.706 75.3442 286.347C82.3462 283.987 88.3205 280.41 93.2671 275.615C98.2144 270.821 102.057 264.846 104.797 257.693C107.537 250.539 108.907 242.091 108.907 232.35V232.35Z" fill="#FCC521"/>
<path fill-rule="evenodd" clip-rule="evenodd" d="M484.944 287.602V127.781H447.044L405.033 195.362L363.023 127.781H325.123V287.602H359.827V183.947L404.348 251.528H405.262L450.24 183.261V287.602H484.944Z" fill="#FCC521"/>
<path fill-rule="evenodd" clip-rule="evenodd" d="M649.789 183.49V183.033C649.789 174.814 648.381 167.317 645.565 160.544C642.749 153.771 638.715 147.949 633.464 143.078C628.213 138.207 621.82 134.44 614.286 131.776C606.751 129.113 598.189 127.781 588.6 127.781H556.729L550.736 134.505L547.287 132.785L548.741 136.743L534.741 152.452L531.934 149.553L531.998 154.498V155.527L523.302 165.285V287.602H558.462V239.656H585.175C594.156 239.656 602.565 238.476 610.404 236.117C618.243 233.757 625.092 230.219 630.953 225.5C636.813 220.782 641.417 214.921 644.766 207.92C648.114 200.918 649.789 192.775 649.789 183.49V183.49ZM614.171 184.175C614.171 191.024 611.736 196.77 606.865 201.412C601.994 206.055 595.145 208.376 586.316 208.376H558.462V159.517H585.632C594.46 159.517 601.424 161.571 606.523 165.681C611.622 169.791 614.171 175.803 614.171 183.718V184.175Z" fill="#FCC522"/>
<path d="M295.898 288.744C282.511 288.744 269.123 288.744 255.735 288.744C254.244 267.967 236.917 251.574 215.759 251.574C194.602 251.574 177.275 267.967 175.784 288.744C162.38 288.744 149.014 288.729 135.62 288.744L200.234 127.781H231.285L295.898 288.744H295.898ZM235.34 228.953L215.326 176.141L195.662 229.117C201.996 227.083 208.749 225.98 215.759 225.98C222.58 225.98 229.155 227.024 235.34 228.953Z" fill="#FCC521"/>
<path d="M810.822 288.744C797.434 288.744 784.046 288.744 770.659 288.744C769.167 267.967 751.84 251.574 730.683 251.574C709.526 251.574 692.198 267.967 690.707 288.744C677.303 288.744 663.938 288.729 650.544 288.744L715.157 127.781H746.209L810.822 288.744ZM750.263 228.953L730.25 176.141L710.586 229.117C716.92 227.083 723.672 225.98 730.683 225.98C737.503 225.98 744.079 227.024 750.263 228.953Z" fill="#FCC521"/>
<path d="M762.576 336.292H560.042C558.945 336.292 558.056 337.973 558.056 340.046C558.056 342.12 558.945 343.801 560.042 343.801H762.576C763.673 343.801 764.562 342.12 764.562 340.046C764.562 337.973 763.673 336.292 762.576 336.292Z" fill="#007EB1"/>
<path d="M250.78 336.292H48.2448C47.1482 336.292 46.2592 337.973 46.2592 340.046C46.2592 342.12 47.1482 343.801 48.2448 343.801H250.78C251.876 343.801 252.765 342.12 252.765 340.046C252.765 337.973 251.876 336.292 250.78 336.292Z" fill="#007EB1" stroke="#0A232D" stroke-width="0.288016" stroke-miterlimit="22.9256"/>
<path d="M595.942 82.8144L608.796 76.7392L604.17 69.9089L617.137 72.7953L619.275 71.7847L616.401 63.6115L625.69 68.7516L631.214 66.1404L629.599 57.0828L637.687 63.0812L653.674 55.5238L650.089 49.1901L649.494 48.1348L661.471 51.8309L661.478 51.8327L670.365 47.6329C669.648 47.3241 668.937 47.029 668.23 46.7398C668.068 46.6744 667.903 46.6068 667.739 46.5414C667.047 46.2606 666.357 45.9881 665.675 45.7273C665.592 45.6959 665.512 45.6665 665.428 45.6355C664.803 45.3993 664.181 45.1695 663.564 44.9477C663.418 44.8951 663.273 44.8426 663.127 44.7901C662.459 44.5539 661.798 44.3259 661.141 44.1075C661.021 44.0682 660.903 44.0319 660.785 43.9911C660.199 43.7991 659.617 43.6135 659.037 43.4348C658.918 43.3985 658.799 43.3607 658.681 43.3248C658.036 43.1278 657.396 42.9407 656.761 42.7635C656.628 42.7257 656.495 42.6895 656.361 42.6516C655.778 42.491 655.2 42.3368 654.627 42.1905C654.55 42.1709 654.473 42.1498 654.396 42.1297C653.771 41.9725 653.15 41.8232 652.535 41.6818C652.397 41.6508 652.258 41.6194 652.12 41.59C651.504 41.452 650.894 41.319 650.288 41.1977C650.283 41.1977 650.276 41.1961 650.272 41.1943C649.66 41.0729 649.054 40.9615 648.453 40.8564C648.32 40.8333 648.186 40.8102 648.055 40.7872C647.46 40.6875 646.875 40.5922 646.292 40.5083C646.233 40.4985 646.177 40.4921 646.119 40.4838C645.581 40.4067 645.048 40.3379 644.518 40.2755C644.393 40.2589 644.27 40.2441 644.145 40.2309C643.582 40.1655 643.022 40.108 642.469 40.0585C642.373 40.0506 642.277 40.0423 642.181 40.034C641.688 39.9932 641.197 39.9569 640.712 39.9274C640.607 39.9209 640.5 39.9126 640.395 39.9062C639.855 39.8748 639.32 39.8518 638.79 39.8356C638.675 39.8307 638.565 39.8291 638.452 39.8257C637.971 39.8125 637.495 39.8061 637.022 39.8042C636.968 39.8042 636.913 39.8012 636.858 39.8012C636.843 39.8012 636.827 39.8027 636.812 39.8027C635.995 39.8042 635.19 39.8208 634.4 39.8538C634.38 39.8553 634.36 39.8553 634.342 39.8568C633.566 39.8916 632.803 39.9407 632.048 40.0045C631.986 40.0095 631.923 40.0162 631.861 40.0211C631.15 40.085 630.448 40.1606 629.753 40.249C629.673 40.2588 629.596 40.2705 629.517 40.2804C628.837 40.3722 628.164 40.474 627.503 40.5889C627.429 40.6021 627.355 40.6134 627.281 40.6282C626.607 40.7481 625.942 40.8796 625.287 41.0239C625.235 41.0353 625.181 41.047 625.128 41.0583C624.433 41.214 623.748 41.3815 623.073 41.5636C623.067 41.5654 623.061 41.567 623.054 41.5685C622.375 41.7525 621.706 41.9495 621.048 42.1562C621.003 42.1709 620.958 42.1871 620.912 42.2004C620.297 42.3974 619.692 42.6075 619.093 42.824C619.028 42.8486 618.962 42.8736 618.897 42.8962C618.318 43.1112 617.747 43.3347 617.185 43.5693C617.118 43.5972 617.051 43.6249 616.983 43.6528C616.421 43.8895 615.865 44.137 615.319 44.3913C615.262 44.4159 615.207 44.4424 615.152 44.4684C614.582 44.7379 614.021 45.0149 613.469 45.3022C613.443 45.3154 613.418 45.3287 613.393 45.3419C612.823 45.6405 612.26 45.9489 611.708 46.2676C611.678 46.2838 611.648 46.3019 611.616 46.3201C611.092 46.6236 610.576 46.9354 610.068 47.2555C610.014 47.2899 609.961 47.3243 609.907 47.3572C609.422 47.6656 608.943 47.9807 608.475 48.3024C608.414 48.3436 608.355 48.3844 608.297 48.4256C607.831 48.7473 607.373 49.0772 606.923 49.4102C606.869 49.4499 606.816 49.4892 606.764 49.53C606.3 49.8762 605.846 50.2293 605.399 50.5872C605.365 50.6151 605.332 50.6397 605.298 50.6676C604.826 51.0498 604.361 51.4386 603.907 51.8309C603.89 51.8457 603.874 51.8589 603.858 51.8722C603.416 52.2577 602.981 52.6485 602.554 53.0439C602.514 53.0817 602.473 53.1194 602.432 53.1588C602.03 53.533 601.636 53.9105 601.25 54.2945C601.2 54.3437 601.149 54.3932 601.099 54.4438C600.721 54.8214 600.35 55.2019 599.985 55.5863C599.937 55.637 599.89 55.6865 599.843 55.7356C599.472 56.1294 599.11 56.5248 598.753 56.9254C598.719 56.9647 598.683 57.0025 598.649 57.0418C598.272 57.467 597.905 57.8937 597.544 58.3238C597.533 58.3366 597.52 58.3498 597.51 58.3631C597.144 58.8011 596.786 59.2411 596.436 59.6856C596.405 59.7223 596.376 59.76 596.347 59.7975C596.022 60.2098 595.703 60.6237 595.392 61.0402C595.352 61.0943 595.312 61.1479 595.271 61.2016C594.971 61.6049 594.676 62.0097 594.388 62.416C594.348 62.4726 594.307 62.5304 594.266 62.5868C593.978 62.9966 593.696 63.4058 593.42 63.8155C593.387 63.8654 593.353 63.9142 593.32 63.9637C593.033 64.3912 592.754 64.8187 592.481 65.2465C592.462 65.2756 592.443 65.3051 592.424 65.3349C592.139 65.7824 591.862 66.2281 591.591 66.6744C591.569 66.7092 591.549 66.745 591.526 66.7802C591.273 67.2001 591.026 67.6189 590.784 68.0361C590.752 68.0917 590.721 68.1461 590.689 68.2013C590.46 68.6004 590.235 68.9988 590.016 69.3952C589.982 69.4583 589.948 69.5203 589.914 69.5823C589.698 69.975 589.488 70.3658 589.284 70.7547C589.253 70.814 589.222 70.8734 589.19 70.9323C588.982 71.3303 588.781 71.7246 588.583 72.1164C588.568 72.1459 588.552 72.1769 588.537 72.2067C588.537 72.2067 588.537 72.2082 588.537 72.209C593.936 51.2074 593.909 16.3417 542.961 0.000244141L546.903 9.00377L546.91 9.00716L558.369 14.0883L557.227 14.492L550.363 16.9127L557.454 33.1147L567.491 33.9024L560.326 39.673L562.775 45.2678L573.156 47.4951L565.62 51.7705L566.569 53.9349L578.241 60.2766L570.267 62.3889L578.021 80.102C578.005 80.0819 577.986 80.0601 577.969 80.04C577.756 79.7761 577.535 79.5097 577.31 79.241C577.273 79.1964 577.237 79.1526 577.199 79.1083C576.972 78.8377 576.74 78.5637 576.501 78.287C576.463 78.242 576.424 78.1974 576.385 78.1513C576.144 77.8731 575.898 77.5923 575.647 77.3095C575.608 77.2657 575.57 77.2222 575.531 77.1784C575.275 76.8922 575.014 76.6035 574.748 76.3133C574.71 76.2717 574.673 76.2309 574.635 76.1897C574.362 75.893 574.083 75.5952 573.799 75.2958C573.765 75.26 573.733 75.2244 573.699 75.1889C573.407 74.8827 573.109 74.5751 572.805 74.2666C572.771 74.2315 572.738 74.1971 572.703 74.1623C572.393 73.8475 572.077 73.5319 571.754 73.2148C571.718 73.1804 571.681 73.1448 571.644 73.109C571.331 72.8028 571.012 72.4959 570.687 72.1894C570.643 72.1478 570.598 72.1055 570.553 72.0635C570.237 71.7669 569.917 71.4705 569.591 71.1749C569.536 71.1251 569.481 71.0752 569.426 71.0253C569.106 70.7373 568.782 70.4501 568.454 70.1629C568.391 70.1084 568.327 70.0533 568.263 69.9977C567.938 69.7176 567.609 69.4376 567.276 69.1586C567.205 69.1 567.135 69.0415 567.064 68.9837C566.732 68.7082 566.396 68.4345 566.054 68.1627C565.979 68.1026 565.904 68.0429 565.829 67.9832C565.488 67.7148 565.144 67.4465 564.794 67.1816C564.715 67.1204 564.634 67.0599 564.554 66.9994C564.203 66.7356 563.848 66.4734 563.489 66.2136C563.408 66.1546 563.327 66.0961 563.245 66.0378C562.882 65.7782 562.515 65.5216 562.144 65.2664C562.062 65.2105 561.979 65.1542 561.897 65.0982C561.52 64.8423 561.138 64.5903 560.752 64.3408C560.672 64.2891 560.593 64.2372 560.512 64.1858C560.118 63.9338 559.719 63.685 559.316 63.4394C559.241 63.3932 559.167 63.3483 559.092 63.303C558.677 63.0528 558.257 62.8082 557.833 62.5671C557.766 62.5282 557.7 62.4904 557.633 62.4526C557.195 62.205 556.75 61.9632 556.302 61.7251C556.247 61.6957 556.192 61.6665 556.137 61.637C555.667 61.3903 555.192 61.1495 554.712 60.9141C554.659 60.8884 554.606 60.8623 554.553 60.837C554.07 60.6027 553.582 60.3728 553.09 60.1514C553.036 60.1279 552.982 60.1049 552.929 60.0814C552.45 59.8675 551.966 59.66 551.478 59.4594C551.412 59.4329 551.347 59.4068 551.282 59.3804C550.801 59.185 550.316 58.9964 549.826 58.8143C549.753 58.7882 549.68 58.7617 549.606 58.7357C549.121 58.5584 548.631 58.3861 548.136 58.2216C548.057 58.1956 547.977 58.1691 547.897 58.1445C547.405 57.9839 546.908 57.8297 546.406 57.6849C546.323 57.6604 546.24 57.6358 546.157 57.6128C545.655 57.4703 545.149 57.3339 544.639 57.2042C544.553 57.1846 544.468 57.1634 544.382 57.1418C543.869 57.0156 543.351 56.8988 542.828 56.7892C542.744 56.7711 542.661 56.7529 542.576 56.7348C542.048 56.6282 541.515 56.5281 540.978 56.4378C540.897 56.4231 540.816 56.4098 540.735 56.395C540.19 56.3081 539.64 56.2276 539.087 56.1573C539.011 56.1457 538.936 56.1358 538.86 56.1279C538.295 56.0572 537.726 55.9983 537.151 55.9487C537.085 55.9423 537.018 55.9374 536.951 55.9306C536.362 55.8834 535.768 55.8456 535.169 55.8191C535.115 55.8161 535.063 55.8142 535.009 55.8112C534.391 55.7862 533.769 55.7733 533.141 55.7714C533.115 55.7714 533.091 55.7714 533.065 55.7714C533.05 55.7714 533.034 55.7714 533.018 55.7714C532.647 55.7714 532.275 55.7764 531.9 55.7862C531.809 55.788 531.717 55.7911 531.626 55.7945C531.338 55.8028 531.049 55.8141 530.759 55.8274C530.635 55.8338 530.51 55.8406 530.385 55.847C530.116 55.8617 529.847 55.8799 529.577 55.8996C529.455 55.9079 529.334 55.9158 529.212 55.9256C528.893 55.9521 528.572 55.9816 528.25 56.013C528.184 56.0194 528.118 56.0243 528.052 56.0307C527.66 56.072 527.266 56.1176 526.87 56.1687C526.783 56.1785 526.695 56.1917 526.608 56.203C526.299 56.2442 525.989 56.2884 525.679 56.3345C525.557 56.3523 525.434 56.3724 525.312 56.392C525.022 56.4378 524.732 56.4872 524.44 56.5379C524.323 56.5594 524.206 56.5791 524.089 56.6003C523.737 56.666 523.385 56.7333 523.03 56.8055C522.979 56.8153 522.929 56.8251 522.878 56.8349C522.467 56.9203 522.054 57.0107 521.639 57.1074C521.552 57.127 521.463 57.1501 521.376 57.1698C521.052 57.2469 520.726 57.3273 520.4 57.4109C520.277 57.4423 520.152 57.4752 520.029 57.5081C519.724 57.5882 519.418 57.6721 519.111 57.7576C518.994 57.7901 518.876 57.823 518.758 57.8573C518.376 57.9673 517.993 58.0807 517.608 58.2005C517.573 58.2118 517.538 58.2216 517.504 58.2314C517.076 58.3664 516.645 58.5073 516.213 58.6517C516.119 58.6846 516.025 58.7175 515.931 58.7504C515.598 58.8634 515.264 58.9816 514.928 59.103C514.799 59.1491 514.67 59.1968 514.54 59.2458C514.226 59.3623 513.908 59.482 513.591 59.6052C513.469 59.6524 513.348 59.699 513.225 59.7474C512.823 59.9061 512.418 60.0702 512.013 60.2402C511.984 60.2516 511.955 60.2633 511.926 60.2746C511.483 60.4613 511.039 60.6537 510.594 60.8525C510.49 60.8978 510.386 60.9463 510.283 60.992C509.945 61.1443 509.606 61.3008 509.265 61.4606C509.128 61.5257 508.991 61.5903 508.854 61.6557C508.53 61.8114 508.205 61.969 507.88 62.1304C507.752 62.1934 507.624 62.2566 507.496 62.3205C507.073 62.5329 506.649 62.7514 506.223 62.9759C506.2 62.988 506.178 62.9993 506.154 63.0122C505.699 63.2514 505.243 63.4993 504.785 63.7534C504.668 63.818 504.55 63.8852 504.433 63.9518C504.093 64.1415 503.753 64.335 503.412 64.5327C503.266 64.6174 503.119 64.7031 502.973 64.7886C502.643 64.9829 502.312 65.1806 501.982 65.3809C501.846 65.4629 501.711 65.5438 501.575 65.627C501.135 65.8964 500.695 66.1704 500.253 66.4532C500.232 66.4657 500.211 66.4789 500.191 66.4921C499.725 66.7896 499.258 67.0953 498.789 67.4064C498.657 67.4937 498.525 67.5847 498.392 67.674C498.054 67.9003 497.716 68.1305 497.376 68.3648C497.217 68.474 497.058 68.5859 496.899 68.6966C496.568 68.9279 496.235 69.1638 495.902 69.4023C495.756 69.507 495.61 69.6106 495.464 69.7176C495.009 70.0471 494.552 70.382 494.094 70.726C494.076 70.7388 494.058 70.752 494.04 70.7657C493.564 71.1232 493.086 71.4902 492.606 71.8621C492.463 71.974 492.317 72.0897 492.173 72.2023C491.833 72.4695 491.492 72.7398 491.15 73.0141C490.983 73.148 490.816 73.2832 490.649 73.4181C490.309 73.6948 489.967 73.9752 489.626 74.2591C489.476 74.3834 489.326 74.507 489.176 74.6325C488.69 75.041 488.202 75.4541 487.712 75.8774L497.451 77.1991L497.457 77.1961L507.761 70.0562L507.511 71.2418L506.004 78.3627L523.53 80.7416L529.427 72.5835L530.623 81.7053L536.677 82.5274L543.981 74.8236L543.708 83.4828L546.052 83.8002L557.543 77.1351L555.194 85.0433L573.599 87.542C563.413 88.1897 546.261 91.142 533.418 102.884C533.35 102.946 533.281 103.008 533.213 103.07C523.576 111.982 516.42 125.899 516.565 147.593C516.592 151.546 516.86 155.755 517.401 160.241L523.94 152.903V152.897L523.778 140.361L524.622 141.233L529.684 146.461L541.452 133.256L537.982 123.807L546.215 127.912L550.279 123.352L547.974 112.99L555.002 118.056L556.575 116.291L557.47 103.036L562.715 109.403L577.738 92.5461C577.799 93.5427 578 94.5711 578.222 95.5398C578.409 96.3596 578.613 97.1382 578.756 97.8166L578.777 97.9145C579.478 101.343 579.918 104.821 580.259 108.302C580.299 108.71 580.337 109.117 580.374 109.526C580.411 109.911 580.443 110.297 580.475 110.682C580.775 114.322 580.931 117.973 580.952 121.629C580.956 122.355 580.954 123.082 580.948 123.808C580.91 128.343 580.67 132.878 580.259 137.405C580.179 138.271 580.095 139.133 580.003 139.997C579.596 143.865 579.07 147.725 578.437 151.566C578.285 152.489 578.128 153.413 577.962 154.333C577.28 158.182 576.498 162.013 575.633 165.815C575.406 166.805 575.177 167.791 574.941 168.778C574.2 171.869 573.411 174.942 572.578 177.989C572.411 178.604 572.24 179.218 572.07 179.833C571.797 180.812 571.522 181.79 571.241 182.77C570.603 184.993 569.945 187.207 569.258 189.415C568.708 191.061 568.178 192.717 567.639 194.366C567.33 195.324 567.017 196.28 566.698 197.232C566.414 198.082 566.128 198.93 565.832 199.775C564.642 203.177 563.217 206.452 561.787 209.76C561.476 210.483 561.925 210.626 562.57 210.65C563.457 210.685 564.339 210.569 565.224 210.569C566.417 210.569 567.612 210.571 568.804 210.571H576.083C580.061 210.571 584.039 210.571 588.016 210.569C590.006 210.569 591.994 210.568 593.984 210.568C594.137 210.568 594.31 210.582 594.489 210.597C594.655 210.609 594.827 210.622 594.995 210.623C595.004 210.623 595.013 210.624 595.022 210.624C595.027 210.624 595.03 210.624 595.034 210.624C595.135 210.624 595.234 210.616 595.33 210.605C595.351 210.6 595.371 210.598 595.393 210.593C595.491 210.577 595.585 210.555 595.67 210.518C595.837 210.446 595.978 210.327 596.069 210.142C596.343 209.583 596.275 208.883 596.366 208.286C597.026 203.978 597.343 199.607 597.648 195.262C597.655 195.16 597.662 195.059 597.669 194.959C597.674 194.871 597.68 194.784 597.686 194.696C597.729 194.087 597.767 193.475 597.802 192.864C597.809 192.743 597.814 192.62 597.821 192.497C597.863 191.771 597.899 191.044 597.936 190.316C597.953 189.948 597.973 189.579 597.989 189.212C597.993 189.112 598 189.012 598.004 188.912C598.005 188.872 598.007 188.834 598.009 188.794C598.01 188.759 598.011 188.723 598.013 188.686C598.028 188.312 598.039 187.936 598.052 187.561C598.08 186.873 598.106 186.185 598.126 185.497C598.131 185.331 598.137 185.166 598.143 185.001C598.143 184.984 598.145 184.969 598.145 184.952C598.146 184.884 598.149 184.817 598.15 184.749C598.151 184.706 598.152 184.664 598.153 184.622C598.155 184.608 598.155 184.594 598.155 184.579C598.161 184.342 598.162 184.105 598.168 183.867C598.195 182.821 598.216 181.773 598.232 180.726C598.237 180.355 598.244 179.984 598.25 179.613C598.251 179.516 598.253 179.421 598.253 179.327C598.262 178.683 598.267 178.039 598.271 177.398C598.276 176.706 598.278 176.016 598.281 175.324C598.281 175.204 598.281 175.081 598.281 174.961C598.281 174.89 598.281 174.819 598.281 174.748C598.281 174.702 598.281 174.654 598.281 174.608C598.281 174.323 598.281 174.037 598.281 173.752C598.281 173.734 598.281 173.715 598.281 173.697C598.281 173.606 598.281 173.514 598.281 173.421C598.281 173.389 598.281 173.358 598.281 173.326C598.279 173.173 598.278 173.018 598.278 172.865C598.278 172.822 598.278 172.781 598.277 172.738C598.277 172.673 598.277 172.608 598.277 172.542C598.276 172.472 598.276 172.404 598.276 172.335C598.276 172.279 598.276 172.224 598.276 172.168C598.275 172.066 598.273 171.963 598.273 171.862C598.273 171.836 598.273 171.81 598.273 171.784C598.272 171.651 598.272 171.517 598.271 171.385C598.271 171.358 598.271 171.331 598.271 171.304C598.27 171.189 598.269 171.077 598.269 170.963C598.268 170.937 598.268 170.911 598.268 170.885C598.267 170.749 598.266 170.612 598.264 170.476C598.264 170.471 598.264 170.466 598.264 170.462C598.264 170.365 598.263 170.269 598.262 170.174C598.262 170.169 598.262 170.166 598.262 170.161C598.262 170.14 598.262 170.118 598.262 170.095C598.262 170.042 598.261 169.99 598.26 169.937C598.26 169.87 598.26 169.805 598.259 169.739C598.244 168.162 598.221 166.585 598.192 165.008C598.184 164.559 598.175 164.112 598.165 163.666C598.161 163.51 598.159 163.353 598.155 163.196C598.153 163.137 598.152 163.078 598.151 163.018C598.108 161.117 598.053 159.215 597.988 157.314C597.965 156.627 597.933 155.942 597.907 155.257C597.867 154.172 597.828 153.088 597.779 152.003C597.763 151.666 597.747 151.329 597.731 150.991C597.722 150.783 597.712 150.574 597.703 150.367C597.695 150.213 597.688 150.058 597.68 149.904V149.903C597.638 149.031 597.583 148.161 597.535 147.289C597.475 146.185 597.419 145.078 597.35 143.974C597.296 143.087 597.231 142.201 597.171 141.315C597.087 140.06 597.005 138.804 596.911 137.55C596.91 137.531 596.909 137.511 596.906 137.491C596.86 136.847 596.809 136.204 596.759 135.56C596.71 134.95 596.652 134.341 596.601 133.731C596.508 132.621 596.415 131.513 596.315 130.405C596.226 129.421 596.131 128.439 596.035 127.456C595.924 126.317 595.813 125.178 595.694 124.04C595.662 123.734 595.635 123.426 595.602 123.121C595.537 122.493 595.468 121.866 595.397 121.24C595.316 120.474 595.226 119.709 595.139 118.945C595.006 117.806 594.869 116.667 594.728 115.526C594.702 115.303 594.674 115.081 594.646 114.862C594.502 113.711 594.354 112.561 594.194 111.413C594.188 111.363 594.181 111.314 594.174 111.266C594.078 110.576 593.979 109.886 593.876 109.196C593.853 109.036 593.828 108.875 593.805 108.714C593.762 108.436 593.717 108.158 593.674 107.88C593.641 107.672 593.611 107.463 593.577 107.256C593.492 106.722 593.399 106.187 593.308 105.654C593.278 105.477 593.249 105.298 593.218 105.122C593.156 104.762 593.087 104.405 593.021 104.046C592.951 103.66 592.881 103.275 592.807 102.889C592.746 102.57 592.68 102.252 592.617 101.935C592.532 101.515 592.447 101.095 592.358 100.677C592.293 100.369 592.224 100.06 592.156 99.7517C592.094 99.4701 592.035 99.1878 591.97 98.905C591.968 98.9016 591.969 98.8982 591.968 98.8948C591.956 98.8484 591.947 98.803 591.936 98.7565C591.933 98.7452 591.93 98.7339 591.928 98.7236C591.919 98.6828 591.908 98.642 591.899 98.6023C591.897 98.5898 591.895 98.5773 591.891 98.5649C591.882 98.5275 591.873 98.489 591.865 98.4515C591.862 98.4364 591.857 98.4205 591.854 98.4057C591.845 98.3683 591.836 98.3309 591.828 98.2935C591.825 98.2799 591.821 98.2663 591.818 98.2515C591.805 98.2005 591.794 98.1495 591.781 98.0996C591.662 97.6048 591.534 97.0999 591.397 96.595C591.383 96.5428 591.372 96.4907 591.357 96.4374C591.275 96.1384 591.188 95.8387 591.099 95.5409C591.093 95.5213 591.086 95.5031 591.079 95.4834C590.967 95.1146 590.848 94.7476 590.719 94.3836C590.651 94.1889 590.578 93.997 590.504 93.8057C590.487 93.7614 590.472 93.7157 590.454 93.6711C590.398 93.5294 590.34 93.3922 590.281 93.2519C590.241 93.1556 590.202 93.0569 590.16 92.9609C590.103 92.8324 590.043 92.7073 589.983 92.5814C589.957 92.5217 589.93 92.4612 589.902 92.4023L607.265 100.994L609.748 93.1268L615.537 105.083L617.655 106.132L622.279 98.8051L624.016 109.277L629.493 111.987L635.592 105.099L635.909 115.162L651.761 123.003L654.5 116.26L654.958 115.137L659.496 126.823L659.499 126.829L668.309 131.187C653.837 77.5605 616.853 77.819 595.943 82.8136L595.942 82.8144Z" fill="#F0A67B"/>
<path d="M585.246 165.697C587.307 165.317 589.387 165.076 591.476 164.956C591.477 164.955 591.477 164.954 591.477 164.953C592.275 164.907 593.072 164.88 593.872 164.871C594.007 164.87 594.14 164.869 594.274 164.869C595.583 164.869 596.887 164.938 598.192 165.008C598.183 164.56 598.174 164.113 598.164 163.666C598.161 163.51 598.158 163.354 598.154 163.196C598.153 163.137 598.152 163.078 598.151 163.018C596.734 162.831 595.299 162.75 593.872 162.713C593.486 162.703 593.1 162.698 592.713 162.698C592.429 162.698 592.143 162.699 591.858 162.706C591.857 162.707 591.857 162.71 591.857 162.712C589.483 162.756 587.112 162.98 584.77 163.369C581.763 163.868 578.8 164.65 575.938 165.7C575.837 165.739 575.734 165.775 575.633 165.815C575.406 166.805 575.176 167.792 574.94 168.778C575.589 168.503 576.244 168.244 576.904 167.998C579.611 166.987 582.405 166.218 585.246 165.697L585.246 165.697Z" fill="#C17446"/>
<path d="M586.537 152.069C588.721 151.74 590.934 151.62 593.143 151.661C593.143 151.659 593.143 151.655 593.143 151.651C593.639 151.661 594.134 151.679 594.629 151.705C595.682 151.76 596.732 151.862 597.779 152.003C597.763 151.666 597.747 151.329 597.731 150.991C597.722 150.784 597.712 150.575 597.703 150.367C597.695 150.213 597.688 150.059 597.68 149.904V149.903C596.668 149.734 595.648 149.61 594.629 149.519C594.181 149.479 593.733 149.447 593.286 149.424C593.286 149.424 593.286 149.426 593.284 149.426C590.875 149.303 588.451 149.417 586.06 149.741C583.469 150.092 580.909 150.705 578.436 151.566C578.284 152.489 578.127 153.413 577.962 154.332C578.202 154.24 578.442 154.148 578.684 154.059C581.226 153.125 583.86 152.472 586.537 152.069V152.069Z" fill="#C17446"/>
<path d="M583.567 96.2756C584.177 96.1633 584.793 96.0859 585.414 96.0348C585.414 96.0337 585.412 96.033 585.411 96.0314C585.949 95.9876 586.489 95.9653 587.027 95.9653C587.932 95.9653 588.836 96.0269 589.723 96.1437C590.273 96.217 590.816 96.3161 591.357 96.4381C591.275 96.1391 591.188 95.8394 591.098 95.5416C591.092 95.522 591.086 95.5038 591.079 95.4841C590.967 95.1153 590.847 94.7475 590.719 94.3843C590.516 94.3393 590.312 94.2996 590.107 94.2629C588.838 94.0324 587.564 93.9167 586.287 93.9167C585.744 93.9167 585.2 93.9375 584.655 93.9798C584.657 93.9802 584.657 93.9817 584.657 93.9832C584.152 94.0218 583.647 94.0747 583.142 94.1499C581.445 94.4016 579.792 94.8759 578.221 95.5396C578.408 96.3594 578.613 97.138 578.756 97.8164C580.278 97.1039 581.895 96.5843 583.567 96.2755L583.567 96.2756Z" fill="#C17446"/>
<path d="M585.895 191.623C585.833 191.623 585.772 191.623 585.712 191.623C585.027 191.625 584.342 191.64 583.657 191.665V191.666C578.582 191.854 573.526 192.671 568.646 194.068C568.308 194.163 567.972 194.263 567.639 194.366C567.329 195.324 567.016 196.28 566.697 197.232C567.192 197.066 567.689 196.904 568.188 196.748C570.812 195.934 573.487 195.293 576.193 194.829C578.323 194.465 580.472 194.215 582.629 194.07C582.629 194.069 582.63 194.068 582.63 194.067C584.138 193.964 585.649 193.915 587.162 193.915C589.04 193.915 590.918 193.991 592.786 194.141C594.394 194.271 596.001 194.458 597.599 194.684L597.686 194.696C597.729 194.087 597.766 193.476 597.801 192.864C596.612 192.603 595.413 192.387 594.205 192.22C591.447 191.833 588.68 191.622 585.895 191.623Z" fill="#C17446"/>
<path d="M595.154 176.966C593.361 176.767 591.559 176.663 589.757 176.663C589.444 176.663 589.131 176.666 588.818 176.672C588.816 176.676 588.816 176.677 588.816 176.678C588.226 176.69 587.636 176.707 587.048 176.742C581.936 177.038 576.876 178.073 572.069 179.833C571.797 180.812 571.521 181.79 571.24 182.77C571.947 182.481 572.662 182.209 573.384 181.951C576.488 180.853 579.687 180.067 582.938 179.545C584.663 179.266 586.407 179.084 588.155 178.985C588.155 178.983 588.156 178.983 588.156 178.982C589.237 178.92 590.323 178.89 591.404 178.89C591.862 178.89 592.318 178.896 592.773 178.906C594.362 178.942 595.947 179.053 597.525 179.231C597.766 179.257 598.009 179.291 598.253 179.327C598.262 178.684 598.267 178.039 598.271 177.398C597.239 177.217 596.196 177.079 595.154 176.966L595.154 176.966Z" fill="#C17446"/>
<path d="M593.297 135.203C593.297 135.205 593.297 135.207 593.297 135.207C591.189 135.11 589.079 135.234 586.989 135.563C584.683 135.925 582.426 136.545 580.258 137.405C580.178 138.271 580.095 139.133 580.002 139.997C580.099 139.955 580.198 139.911 580.295 139.866C582.568 138.857 584.98 138.14 587.43 137.707C589.389 137.359 591.394 137.21 593.389 137.241C593.389 137.238 593.389 137.234 593.389 137.231C593.837 137.238 594.285 137.255 594.732 137.281C595.461 137.321 596.184 137.394 596.906 137.492C596.859 136.847 596.808 136.205 596.759 135.561C596.135 135.463 595.508 135.383 594.878 135.32C594.35 135.268 593.824 135.228 593.297 135.203V135.203Z" fill="#C17446"/>
<path d="M591.767 120.828C590.521 120.749 589.284 120.732 588.087 120.758C585.681 120.813 583.293 121.108 580.951 121.628C580.956 122.355 580.953 123.082 580.948 123.808C583.288 123.237 585.686 122.895 588.087 122.771C589.412 122.702 590.741 122.714 592.066 122.783C592.066 122.781 592.066 122.778 592.066 122.776C592.854 122.817 593.643 122.88 594.429 122.965C594.822 123.009 595.213 123.062 595.601 123.122C595.537 122.493 595.467 121.867 595.397 121.241C594.195 121.034 592.977 120.901 591.767 120.825V120.828Z" fill="#C17446"/>
<path d="M588.816 106.939C588.816 106.942 588.819 106.947 588.82 106.95C587.893 106.964 586.967 107.007 586.047 107.102C584.085 107.306 582.142 107.715 580.258 108.302C580.299 108.71 580.336 109.117 580.374 109.526C580.41 109.91 580.443 110.297 580.475 110.682C582.383 110.032 584.347 109.584 586.344 109.297C587.341 109.154 588.348 109.071 589.356 109.034C589.355 109.033 589.355 109.032 589.355 109.03C589.716 109.019 590.078 109.011 590.441 109.011C591.223 109.011 592.005 109.041 592.786 109.097C593.151 109.122 593.513 109.157 593.876 109.197C593.853 109.037 593.828 108.876 593.804 108.714C593.762 108.437 593.717 108.159 593.673 107.881C593.64 107.673 593.609 107.464 593.576 107.255C593.365 107.225 593.152 107.196 592.938 107.168C591.711 107.012 590.474 106.935 589.236 106.935C589.095 106.935 588.956 106.938 588.816 106.939H588.816Z" fill="#C17446"/>
<path d="M598.28 173.753C598.28 173.735 598.28 173.715 598.28 173.697C598.28 173.606 598.28 173.515 598.28 173.422C598.28 173.39 598.28 173.358 598.28 173.326C598.279 173.173 598.278 173.019 598.278 172.866C598.278 172.822 598.278 172.782 598.277 172.738C598.277 172.674 598.277 172.608 598.277 172.542C598.276 172.473 598.276 172.405 598.276 172.336C598.276 172.279 598.276 172.225 598.276 172.169C598.274 172.067 598.273 171.963 598.273 171.863C598.273 171.836 598.273 171.81 598.273 171.784C598.272 171.652 598.272 171.517 598.271 171.386C598.271 171.359 598.271 171.331 598.271 171.304C598.27 171.19 598.269 171.077 598.269 170.964C598.268 170.938 598.268 170.911 598.268 170.885C598.267 170.749 598.265 170.612 598.264 170.476C598.264 170.472 598.264 170.467 598.264 170.462C598.264 170.366 598.263 170.269 598.262 170.174C598.262 170.169 598.262 170.166 598.262 170.162C598.262 170.14 598.262 170.118 598.262 170.096C598.262 170.043 598.261 169.99 598.26 169.937C598.26 169.87 598.26 169.805 598.259 169.739C598.244 168.162 598.221 166.585 598.192 165.008C598.183 164.56 598.174 164.113 598.164 163.666C598.161 163.51 598.159 163.354 598.154 163.196C598.153 163.137 598.152 163.078 598.151 163.018C598.108 161.118 598.053 159.215 597.987 157.314C597.965 156.628 597.933 155.943 597.907 155.258C597.866 154.173 597.827 153.088 597.779 152.003C597.763 151.666 597.747 151.329 597.731 150.991C597.722 150.784 597.712 150.575 597.703 150.367C597.695 150.213 597.688 150.059 597.68 149.904V149.903C597.638 149.032 597.582 148.161 597.535 147.29C597.474 146.185 597.419 145.079 597.35 143.975C597.295 143.087 597.231 142.201 597.171 141.315C597.086 140.06 597.005 138.804 596.911 137.551C596.909 137.531 596.908 137.512 596.906 137.491C596.86 136.847 596.809 136.205 596.759 135.56C596.71 134.95 596.652 134.342 596.601 133.731C596.508 132.622 596.415 131.513 596.315 130.406C596.225 129.421 596.13 128.439 596.035 127.456C595.923 126.318 595.812 125.178 595.693 124.041C595.662 123.734 595.634 123.427 595.601 123.122C595.537 122.493 595.468 121.867 595.397 121.241C595.315 120.475 595.226 119.71 595.138 118.945C595.006 117.806 594.869 116.667 594.728 115.527C594.702 115.303 594.673 115.082 594.646 114.862C594.502 113.712 594.353 112.562 594.193 111.414C594.187 111.364 594.181 111.315 594.174 111.266C594.078 110.576 593.979 109.887 593.876 109.197C593.853 109.037 593.828 108.876 593.804 108.714C593.762 108.437 593.717 108.159 593.673 107.88C593.641 107.673 593.609 107.464 593.576 107.255C593.49 106.722 593.399 106.188 593.307 105.654C593.278 105.477 593.248 105.298 593.218 105.122C593.155 104.762 593.087 104.405 593.021 104.047C592.951 103.661 592.88 103.275 592.807 102.889C592.746 102.571 592.68 102.253 592.616 101.935C592.531 101.515 592.447 101.095 592.357 100.678C592.293 100.369 592.224 100.061 592.156 99.7521C592.093 99.4705 592.035 99.1882 591.969 98.9055C591.968 98.9021 591.968 98.8987 591.967 98.8953C591.956 98.8488 591.947 98.8035 591.935 98.757C591.933 98.7457 591.929 98.7344 591.927 98.7241C591.918 98.6833 591.908 98.6425 591.899 98.6028C591.897 98.5903 591.894 98.5778 591.891 98.5654C591.882 98.528 591.873 98.4894 591.865 98.452C591.862 98.4369 591.857 98.421 591.854 98.4062C591.844 98.3688 591.835 98.3313 591.827 98.294C591.824 98.2804 591.821 98.2667 591.817 98.252C591.805 98.201 591.793 98.1499 591.781 98.1001C591.662 97.6053 591.534 97.1004 591.396 96.5955C591.383 96.5433 591.371 96.4912 591.357 96.4379C591.275 96.1389 591.188 95.8392 591.098 95.5414C591.092 95.5218 591.086 95.5036 591.079 95.4839C590.967 95.1151 590.847 94.7473 590.719 94.3841C590.65 94.1894 590.577 93.997 590.503 93.8061C590.486 93.7619 590.472 93.7162 590.454 93.6716C590.398 93.5299 590.339 93.3927 590.28 93.2524C590.24 93.1561 590.202 93.0574 590.16 92.9614C590.103 92.8329 590.043 92.7078 589.983 92.5819C589.957 92.5222 589.93 92.4617 589.901 92.4028C589.88 92.3589 589.859 92.315 589.838 92.2716C589.779 92.1514 589.715 92.0342 589.652 91.9171C589.598 91.8135 589.545 91.7085 589.488 91.6072C589.424 91.4942 589.358 91.3853 589.292 91.2739C589.232 91.173 589.17 91.0721 589.108 90.9734C589.04 90.8664 588.967 90.764 588.897 90.6605C588.83 90.5637 588.764 90.4669 588.695 90.3732C588.621 90.2727 588.544 90.1779 588.467 90.0818C588.394 89.9904 588.322 89.8997 588.247 89.812C588.167 89.7202 588.085 89.6322 588.002 89.5433C587.924 89.459 587.843 89.3755 587.761 89.2938C587.675 89.2103 587.588 89.1298 587.499 89.0508C587.412 88.9733 587.327 88.8973 587.236 88.824C587.145 88.7491 587.051 88.6766 586.955 88.6066C586.862 88.5378 586.767 88.4702 586.671 88.4067C586.572 88.3409 586.472 88.2785 586.37 88.2173C586.269 88.1576 586.165 88.1005 586.059 88.0449C585.955 87.9898 585.848 87.9376 585.74 87.8874C585.63 87.8375 585.517 87.7907 585.402 87.7452C585.291 87.7014 585.179 87.6591 585.064 87.6201C584.944 87.5801 584.822 87.5449 584.697 87.5113C584.58 87.4792 584.461 87.4478 584.339 87.4202C584.209 87.3918 584.075 87.37 583.939 87.3477C583.815 87.328 583.692 87.3072 583.563 87.2929C583.423 87.2766 583.275 87.2683 583.128 87.2604C582.998 87.2525 582.869 87.2442 582.735 87.2415C582.73 87.2415 582.727 87.2408 582.721 87.2408C582.687 87.2404 582.657 87.2366 582.623 87.2366C582.599 87.2366 582.574 87.2388 582.55 87.2388C582.354 87.2403 582.153 87.2464 581.948 87.2608C582.898 89.4823 583.804 91.7205 584.656 93.9796C584.657 93.98 584.657 93.9815 584.657 93.983C584.914 94.6633 585.165 95.3459 585.412 96.0311C585.413 96.0327 585.414 96.0334 585.414 96.0345C586.293 98.4802 587.108 100.955 587.844 103.462C588.184 104.617 588.507 105.775 588.817 106.938C588.817 106.942 588.819 106.947 588.82 106.95C589.002 107.642 589.182 108.335 589.355 109.03C589.355 109.032 589.355 109.033 589.357 109.034C590.328 112.928 591.133 116.863 591.768 120.825V120.827C591.871 121.476 591.971 122.125 592.066 122.775C592.066 122.778 592.066 122.781 592.066 122.783C592.664 126.902 593.077 131.048 593.297 135.203C593.297 135.205 593.297 135.207 593.297 135.207C593.332 135.882 593.364 136.555 593.389 137.23C593.389 137.234 593.389 137.237 593.389 137.241C593.541 141.299 593.509 145.367 593.286 149.424C593.286 149.424 593.286 149.426 593.285 149.426C593.263 149.813 593.24 150.199 593.215 150.586C593.194 150.942 593.169 151.296 593.143 151.651C593.143 151.654 593.143 151.658 593.143 151.66C592.874 155.357 592.445 159.044 591.858 162.706C591.857 162.707 591.857 162.709 591.857 162.712C591.737 163.46 591.61 164.207 591.477 164.952C591.477 164.954 591.477 164.955 591.476 164.956C590.772 168.901 589.885 172.812 588.818 176.672C588.816 176.675 588.816 176.676 588.816 176.678C588.603 177.447 588.383 178.216 588.156 178.982C588.156 178.983 588.155 178.983 588.155 178.984C586.88 183.286 585.378 187.523 583.657 191.665V191.666C583.323 192.471 582.981 193.269 582.631 194.066C582.631 194.068 582.629 194.069 582.629 194.07C580.116 199.781 577.181 205.306 573.838 210.57H576.082C580.061 210.57 584.038 210.57 588.015 210.569C590.006 210.569 591.993 210.568 593.983 210.568C594.136 210.568 594.31 210.582 594.488 210.596C594.655 210.609 594.826 210.622 594.994 210.623C595.003 210.623 595.012 210.624 595.022 210.624C595.026 210.624 595.03 210.624 595.034 210.624C595.135 210.624 595.234 210.616 595.329 210.604C595.35 210.6 595.371 210.598 595.393 210.593C595.49 210.577 595.584 210.555 595.669 210.518C595.836 210.446 595.977 210.327 596.069 210.142C596.342 209.582 596.274 208.883 596.366 208.285C597.025 203.977 597.343 199.607 597.648 195.262C597.655 195.16 597.661 195.059 597.669 194.958C597.674 194.871 597.68 194.784 597.686 194.696C597.729 194.087 597.766 193.475 597.801 192.864C597.808 192.755 597.812 192.646 597.818 192.538C597.889 191.33 597.951 190.121 598.003 188.912C598.004 188.872 598.007 188.834 598.009 188.794C598.01 188.759 598.011 188.722 598.012 188.686C598.028 188.312 598.038 187.936 598.052 187.561C598.079 186.873 598.105 186.185 598.126 185.497C598.13 185.331 598.137 185.165 598.143 185.001C598.143 184.984 598.144 184.969 598.144 184.952C598.146 184.884 598.148 184.817 598.15 184.749C598.151 184.706 598.152 184.664 598.153 184.622C598.154 184.608 598.154 184.594 598.154 184.579C598.199 182.899 598.23 181.221 598.25 179.543C598.25 179.47 598.253 179.398 598.253 179.326C598.262 178.683 598.267 178.039 598.271 177.398C598.276 176.705 598.278 176.016 598.28 175.324C598.28 175.203 598.28 175.081 598.28 174.961C598.28 174.89 598.28 174.819 598.28 174.748C598.28 174.702 598.28 174.654 598.28 174.608C598.28 174.323 598.28 174.037 598.28 173.752V173.753Z" fill="#E68E63"/>
<path d="M594.206 192.22C591.447 191.833 588.68 191.622 585.895 191.623C585.834 191.623 585.772 191.623 585.712 191.623C585.027 191.625 584.343 191.64 583.657 191.665V191.666C583.322 192.471 582.981 193.269 582.63 194.067C584.138 193.965 585.649 193.915 587.162 193.915C589.04 193.915 590.918 193.991 592.786 194.142C594.394 194.271 596.001 194.458 597.599 194.684L597.686 194.696C597.729 194.087 597.766 193.476 597.801 192.864C596.612 192.603 595.413 192.387 594.205 192.22L594.206 192.22Z" fill="#BB6642"/>
<path d="M595.154 176.966C593.36 176.767 591.559 176.663 589.757 176.663C589.444 176.663 589.13 176.666 588.818 176.672C588.816 176.676 588.816 176.677 588.816 176.678C588.603 177.447 588.383 178.216 588.156 178.982C589.237 178.92 590.323 178.89 591.404 178.89C591.862 178.89 592.318 178.896 592.773 178.906C594.362 178.942 595.947 179.053 597.525 179.231C597.766 179.257 598.009 179.291 598.253 179.327C598.262 178.684 598.267 178.039 598.271 177.398C597.238 177.216 596.196 177.079 595.154 176.966L595.154 176.966Z" fill="#BB6642"/>
<path d="M593.872 162.713C593.486 162.703 593.1 162.698 592.713 162.698C592.429 162.698 592.143 162.699 591.858 162.706C591.857 162.707 591.857 162.71 591.857 162.712C591.737 163.461 591.61 164.207 591.477 164.953C592.275 164.907 593.072 164.88 593.872 164.871C594.007 164.87 594.14 164.869 594.273 164.869C595.583 164.869 596.887 164.938 598.192 165.008C598.183 164.56 598.174 164.113 598.164 163.666C598.161 163.511 598.158 163.354 598.154 163.196C598.153 163.137 598.152 163.079 598.151 163.018C596.734 162.831 595.299 162.751 593.872 162.713V162.713Z" fill="#BB6642"/>
<path d="M594.629 149.519C594.181 149.479 593.734 149.447 593.286 149.424C593.286 149.424 593.286 149.426 593.284 149.426C593.263 149.813 593.24 150.199 593.215 150.586C593.194 150.942 593.169 151.296 593.143 151.651C593.639 151.66 594.134 151.679 594.629 151.705C595.682 151.759 596.733 151.861 597.779 152.003C597.763 151.666 597.747 151.329 597.731 150.991C597.722 150.783 597.712 150.574 597.703 150.367C597.695 150.213 597.688 150.058 597.68 149.904V149.903C596.668 149.734 595.648 149.61 594.629 149.518V149.519Z" fill="#BB6642"/>
<path d="M594.878 135.32C594.35 135.267 593.824 135.228 593.297 135.203C593.297 135.205 593.297 135.207 593.297 135.207C593.332 135.882 593.364 136.556 593.389 137.231C593.837 137.237 594.285 137.254 594.732 137.28C595.461 137.321 596.185 137.394 596.906 137.491C596.859 136.847 596.808 136.205 596.759 135.56C596.135 135.463 595.508 135.383 594.878 135.32Z" fill="#BB6642"/>
<path d="M591.767 120.825V120.828C591.87 121.477 591.97 122.126 592.066 122.776C592.854 122.817 593.643 122.88 594.429 122.965C594.822 123.01 595.213 123.062 595.601 123.122C595.537 122.493 595.467 121.867 595.397 121.241C594.195 121.034 592.977 120.901 591.767 120.825Z" fill="#BB6642"/>
<path d="M593.576 107.255C593.365 107.225 593.152 107.196 592.938 107.168C591.711 107.012 590.474 106.935 589.236 106.935C589.095 106.935 588.956 106.938 588.816 106.939C588.816 106.942 588.819 106.947 588.82 106.95C589.002 107.642 589.181 108.336 589.355 109.03C589.716 109.019 590.078 109.011 590.441 109.011C591.223 109.011 592.006 109.041 592.786 109.097C593.151 109.122 593.513 109.157 593.876 109.197C593.853 109.037 593.828 108.876 593.804 108.714C593.762 108.437 593.717 108.159 593.673 107.881C593.64 107.673 593.609 107.464 593.576 107.256L593.576 107.255Z" fill="#BB6642"/>
<path d="M590.719 94.3843C590.516 94.3393 590.312 94.2996 590.107 94.2629C588.838 94.0324 587.564 93.9167 586.287 93.9167C585.744 93.9167 585.2 93.9375 584.655 93.9798C584.657 93.9802 584.657 93.9817 584.657 93.9832C584.913 94.6636 585.165 95.3461 585.411 96.0314C585.949 95.9876 586.489 95.9652 587.027 95.9652C587.932 95.9652 588.836 96.0268 589.723 96.1436C590.273 96.2169 590.816 96.316 591.356 96.438C591.275 96.1391 591.188 95.8393 591.098 95.5415C591.092 95.5219 591.086 95.5037 591.079 95.4841C590.967 95.1152 590.847 94.7474 590.719 94.3842V94.3843Z" fill="#BB6642"/>
<path d="M595.942 82.8144L608.796 76.7392L604.17 69.9089L617.137 72.7953L619.275 71.7847L616.401 63.6115L625.69 68.7516L631.214 66.1404L629.599 57.0828L637.687 63.0812L653.674 55.5238L650.089 49.1901L649.494 48.1348L661.471 51.8309L661.478 51.8327L670.365 47.6329C669.648 47.3241 668.937 47.029 668.23 46.7398C668.068 46.6744 667.903 46.6068 667.739 46.5414C667.047 46.2606 666.357 45.9881 665.675 45.7273C665.592 45.6959 665.512 45.6665 665.428 45.6355C664.803 45.3993 664.181 45.1695 663.564 44.9477C663.418 44.8951 663.273 44.8426 663.127 44.7901C662.459 44.5539 661.798 44.3259 661.141 44.1075C661.021 44.0682 660.903 44.0319 660.785 43.9911C660.199 43.7991 659.617 43.6135 659.037 43.4348C658.918 43.3985 658.799 43.3607 658.681 43.3248C658.036 43.1278 657.396 42.9407 656.761 42.7635C656.628 42.7257 656.495 42.6895 656.361 42.6516C655.778 42.491 655.2 42.3368 654.627 42.1905C654.55 42.1709 654.473 42.1498 654.396 42.1297C653.771 41.9725 653.15 41.8232 652.535 41.6818C652.397 41.6508 652.258 41.6194 652.12 41.59C651.504 41.452 650.894 41.319 650.288 41.1977C650.283 41.1977 650.276 41.1961 650.272 41.1943C649.66 41.0729 649.054 40.9615 648.453 40.8564C648.32 40.8333 648.186 40.8102 648.055 40.7872C647.46 40.6875 646.875 40.5922 646.292 40.5083C646.233 40.4985 646.177 40.4921 646.119 40.4838C645.581 40.4067 645.048 40.3379 644.518 40.2755C644.393 40.2589 644.27 40.2441 644.145 40.2309C643.582 40.1655 643.022 40.108 642.469 40.0585C642.373 40.0506 642.277 40.0423 642.181 40.034C641.688 39.9932 641.197 39.9569 640.712 39.9274C640.607 39.9209 640.5 39.9126 640.395 39.9062C639.855 39.8748 639.32 39.8518 638.79 39.8356C638.675 39.8307 638.565 39.8291 638.452 39.8257C637.971 39.8125 637.495 39.8061 637.022 39.8042C636.968 39.8042 636.913 39.8012 636.858 39.8012C636.843 39.8012 636.827 39.8027 636.812 39.8027C635.995 39.8042 635.19 39.8208 634.4 39.8538C634.38 39.8553 634.36 39.8553 634.342 39.8568C633.566 39.8916 632.803 39.9407 632.048 40.0045C631.986 40.0095 631.923 40.0162 631.861 40.0211C631.15 40.085 630.448 40.1606 629.753 40.249C629.673 40.2588 629.596 40.2705 629.517 40.2804C628.837 40.3722 628.164 40.474 627.503 40.5889C627.429 40.6021 627.355 40.6134 627.281 40.6282C626.607 40.7481 625.942 40.8796 625.287 41.0239C625.235 41.0353 625.181 41.047 625.128 41.0583C624.433 41.214 623.748 41.3815 623.073 41.5636C623.067 41.5654 623.061 41.567 623.054 41.5685C622.375 41.7525 621.706 41.9495 621.048 42.1562C621.003 42.1709 620.958 42.1871 620.912 42.2004C620.297 42.3974 619.692 42.6075 619.093 42.824C619.028 42.8486 618.962 42.8736 618.897 42.8962C618.318 43.1112 617.747 43.3347 617.185 43.5693C617.118 43.5972 617.051 43.6249 616.983 43.6528C616.421 43.8895 615.865 44.137 615.319 44.3913C615.262 44.4159 615.207 44.4424 615.152 44.4684C614.582 44.7379 614.021 45.0149 613.469 45.3022C613.443 45.3154 613.418 45.3287 613.393 45.3419C612.823 45.6405 612.26 45.9489 611.708 46.2676C611.678 46.2838 611.648 46.3019 611.616 46.3201C611.092 46.6236 610.576 46.9354 610.068 47.2555C610.014 47.2899 609.961 47.3243 609.907 47.3572C609.422 47.6656 608.943 47.9807 608.475 48.3024C608.414 48.3436 608.355 48.3844 608.297 48.4256C607.831 48.7473 607.373 49.0772 606.923 49.4102C606.869 49.4499 606.816 49.4892 606.764 49.53C606.3 49.8762 605.846 50.2293 605.399 50.5872C605.365 50.6151 605.332 50.6397 605.298 50.6676C604.826 51.0498 604.361 51.4386 603.907 51.8309C603.89 51.8457 603.874 51.8589 603.858 51.8722C603.416 52.2577 602.981 52.6485 602.554 53.0439C602.514 53.0817 602.473 53.1194 602.432 53.1588C602.03 53.533 601.636 53.9105 601.25 54.2945C601.2 54.3437 601.149 54.3932 601.099 54.4438C600.721 54.8214 600.35 55.2019 599.985 55.5863C599.937 55.637 599.89 55.6865 599.843 55.7356C599.472 56.1294 599.11 56.5248 598.753 56.9254C598.719 56.9647 598.683 57.0025 598.649 57.0418C598.272 57.467 597.905 57.8937 597.544 58.3238C597.533 58.3366 597.52 58.3498 597.51 58.3631C597.144 58.8011 596.786 59.2411 596.436 59.6856C596.405 59.7223 596.376 59.76 596.347 59.7975C596.022 60.2098 595.703 60.6237 595.392 61.0402C595.352 61.0943 595.312 61.1479 595.271 61.2016C594.971 61.6049 594.676 62.0097 594.388 62.416C594.348 62.4726 594.307 62.5304 594.266 62.5868C593.978 62.9966 593.696 63.4058 593.42 63.8155C593.387 63.8654 593.353 63.9142 593.32 63.9637C593.033 64.3912 592.754 64.8187 592.481 65.2465C592.462 65.2756 592.443 65.3051 592.424 65.3349C592.139 65.7824 591.862 66.2281 591.591 66.6744C591.569 66.7092 591.549 66.745 591.526 66.7802C591.273 67.2001 591.026 67.6189 590.784 68.0361C590.752 68.0917 590.721 68.1461 590.689 68.2013C590.46 68.6004 590.235 68.9988 590.016 69.3952C589.982 69.4583 589.948 69.5203 589.914 69.5823C589.698 69.975 589.488 70.3658 589.284 70.7547C589.253 70.814 589.222 70.8734 589.19 70.9323C588.982 71.3303 588.781 71.7246 588.583 72.1164C588.568 72.1459 588.552 72.1769 588.537 72.2067C588.537 72.2067 588.537 72.2082 588.537 72.209C593.936 51.2074 593.909 16.3417 542.961 0.000244141L546.903 9.00377L546.91 9.00716L558.369 14.0883L557.227 14.492L550.363 16.9127L557.454 33.1147L567.491 33.9024L560.326 39.673L562.775 45.2678L573.156 47.4951L565.62 51.7705L566.569 53.9349L578.241 60.2766L570.267 62.3889L578.021 80.102C578.005 80.0819 577.986 80.0601 577.969 80.04C577.756 79.7761 577.535 79.5097 577.31 79.241C577.273 79.1964 577.237 79.1526 577.199 79.1083C576.972 78.8377 576.74 78.5637 576.501 78.287C576.463 78.242 576.424 78.1974 576.385 78.1513C576.144 77.8731 575.898 77.5923 575.647 77.3095C575.608 77.2657 575.57 77.2222 575.531 77.1784C575.275 76.8922 575.014 76.6035 574.748 76.3133C574.71 76.2717 574.673 76.2309 574.635 76.1897C574.362 75.893 574.083 75.5952 573.799 75.2958C573.765 75.26 573.733 75.2244 573.699 75.1889C573.407 74.8827 573.109 74.5751 572.805 74.2666C572.771 74.2315 572.738 74.1971 572.703 74.1623C572.393 73.8475 572.077 73.5319 571.754 73.2148C571.718 73.1804 571.681 73.1448 571.644 73.109C571.331 72.8028 571.012 72.4959 570.687 72.1894C570.643 72.1478 570.598 72.1055 570.553 72.0635C570.237 71.7669 569.917 71.4705 569.591 71.1749C569.536 71.1251 569.481 71.0752 569.426 71.0253C569.106 70.7373 568.782 70.4501 568.454 70.1629C568.391 70.1084 568.327 70.0533 568.263 69.9977C567.938 69.7176 567.609 69.4376 567.276 69.1586C567.205 69.1 567.135 69.0415 567.064 68.9837C566.732 68.7082 566.396 68.4345 566.054 68.1627C565.979 68.1026 565.904 68.0429 565.829 67.9832C565.488 67.7148 565.144 67.4465 564.794 67.1816C564.715 67.1204 564.634 67.0599 564.554 66.9994C564.203 66.7356 563.848 66.4734 563.489 66.2136C563.408 66.1546 563.327 66.0961 563.245 66.0378C562.882 65.7782 562.515 65.5216 562.144 65.2664C562.062 65.2105 561.979 65.1542 561.897 65.0982C561.52 64.8423 561.138 64.5903 560.752 64.3408C560.672 64.2891 560.593 64.2372 560.512 64.1858C560.118 63.9338 559.719 63.685 559.316 63.4394C559.241 63.3932 559.167 63.3483 559.092 63.303C558.677 63.0528 558.257 62.8082 557.833 62.5671C557.766 62.5282 557.7 62.4904 557.633 62.4526C557.195 62.205 556.75 61.9632 556.302 61.7251C556.247 61.6957 556.192 61.6665 556.137 61.637C555.667 61.3903 555.192 61.1495 554.712 60.9141C554.659 60.8884 554.606 60.8623 554.553 60.837C554.07 60.6027 553.582 60.3728 553.09 60.1514C553.036 60.1279 552.982 60.1049 552.929 60.0814C552.45 59.8675 551.966 59.66 551.478 59.4594C551.412 59.4329 551.347 59.4068 551.282 59.3804C550.801 59.185 550.316 58.9964 549.826 58.8143C549.753 58.7882 549.68 58.7617 549.606 58.7357C549.121 58.5584 548.631 58.3861 548.136 58.2216C548.057 58.1956 547.977 58.1691 547.897 58.1445C547.405 57.9839 546.908 57.8297 546.406 57.6849C546.323 57.6604 546.24 57.6358 546.157 57.6128C545.655 57.4703 545.149 57.3339 544.639 57.2042C544.553 57.1846 544.468 57.1634 544.382 57.1418C543.869 57.0156 543.351 56.8988 542.828 56.7892C542.744 56.7711 542.661 56.7529 542.576 56.7348C542.048 56.6282 541.515 56.5281 540.978 56.4378C540.897 56.4231 540.816 56.4098 540.735 56.395C540.19 56.3081 539.64 56.2276 539.087 56.1573C539.011 56.1457 538.936 56.1358 538.86 56.1279C538.295 56.0572 537.726 55.9983 537.151 55.9487C537.085 55.9423 537.018 55.9374 536.951 55.9306C536.362 55.8834 535.768 55.8456 535.169 55.8191C535.115 55.8161 535.063 55.8142 535.009 55.8112C534.391 55.7862 533.769 55.7733 533.141 55.7714C533.115 55.7714 533.091 55.7714 533.065 55.7714C533.05 55.7714 533.034 55.7714 533.018 55.7714C532.647 55.7714 532.275 55.7764 531.9 55.7862C531.809 55.788 531.717 55.7911 531.626 55.7945C531.338 55.8028 531.049 55.8141 530.759 55.8274C530.635 55.8338 530.51 55.8406 530.385 55.847C530.116 55.8617 529.847 55.8799 529.577 55.8996C529.455 55.9079 529.334 55.9158 529.212 55.9256C528.893 55.9521 528.572 55.9816 528.25 56.013C528.184 56.0194 528.118 56.0243 528.052 56.0307C527.66 56.072 527.266 56.1176 526.87 56.1687C526.783 56.1785 526.695 56.1917 526.608 56.203C526.299 56.2442 525.989 56.2884 525.679 56.3345C525.557 56.3523 525.434 56.3724 525.312 56.392C525.022 56.4378 524.732 56.4872 524.44 56.5379C524.323 56.5594 524.206 56.5791 524.089 56.6003C523.737 56.666 523.385 56.7333 523.03 56.8055C522.979 56.8153 522.929 56.8251 522.878 56.8349C522.467 56.9203 522.054 57.0107 521.639 57.1074C521.552 57.127 521.463 57.1501 521.376 57.1698C521.052 57.2469 520.726 57.3273 520.4 57.4109C520.277 57.4423 520.152 57.4752 520.029 57.5081C519.724 57.5882 519.418 57.6721 519.111 57.7576C518.994 57.7901 518.876 57.823 518.758 57.8573C518.376 57.9673 517.993 58.0807 517.608 58.2005C517.573 58.2118 517.538 58.2216 517.504 58.2314C517.076 58.3664 516.645 58.5073 516.213 58.6517C516.119 58.6846 516.025 58.7175 515.931 58.7504C515.598 58.8634 515.264 58.9816 514.928 59.103C514.799 59.1491 514.67 59.1968 514.54 59.2458C514.226 59.3623 513.908 59.482 513.591 59.6052C513.469 59.6524 513.348 59.699 513.225 59.7474C512.823 59.9061 512.418 60.0702 512.013 60.2402C511.984 60.2516 511.955 60.2633 511.926 60.2746C511.483 60.4613 511.039 60.6537 510.594 60.8525C510.49 60.8978 510.386 60.9463 510.283 60.992C509.945 61.1443 509.606 61.3008 509.265 61.4606C509.128 61.5257 508.991 61.5903 508.854 61.6557C508.53 61.8114 508.205 61.969 507.88 62.1304C507.752 62.1934 507.624 62.2566 507.496 62.3205C507.073 62.5329 506.649 62.7514 506.223 62.9759C506.2 62.988 506.178 62.9993 506.154 63.0122C505.699 63.2514 505.243 63.4993 504.785 63.7534C504.668 63.818 504.55 63.8852 504.433 63.9518C504.093 64.1415 503.753 64.335 503.412 64.5327C503.266 64.6174 503.119 64.7031 502.973 64.7886C502.643 64.9829 502.312 65.1806 501.982 65.3809C501.846 65.4629 501.711 65.5438 501.575 65.627C501.135 65.8964 500.695 66.1704 500.253 66.4532C500.232 66.4657 500.211 66.4789 500.191 66.4921C499.725 66.7896 499.258 67.0953 498.789 67.4064C498.657 67.4937 498.525 67.5847 498.392 67.674C498.054 67.9003 497.716 68.1305 497.376 68.3648C497.217 68.474 497.058 68.5859 496.899 68.6966C496.568 68.9279 496.235 69.1638 495.902 69.4023C495.756 69.507 495.61 69.6106 495.464 69.7176C495.009 70.0471 494.552 70.382 494.094 70.726C494.076 70.7388 494.058 70.752 494.04 70.7657C493.564 71.1232 493.086 71.4902 492.606 71.8621C492.463 71.974 492.317 72.0897 492.173 72.2023C491.833 72.4695 491.492 72.7398 491.15 73.0141C490.983 73.148 490.816 73.2832 490.649 73.4181C490.309 73.6948 489.967 73.9752 489.626 74.2591C489.476 74.3834 489.326 74.507 489.176 74.6325C488.69 75.041 488.202 75.4541 487.712 75.8774L497.451 77.1991L497.457 77.1961L507.761 70.0562L507.511 71.2418L506.004 78.3627L523.53 80.7416L529.427 72.5835L530.623 81.7053L536.677 82.5274L543.981 74.8236L543.708 83.4828L546.052 83.8002L557.543 77.1351L555.194 85.0433L573.599 87.542C563.413 88.1897 546.261 91.142 533.418 102.884C533.35 102.946 533.281 103.008 533.213 103.07C523.576 111.982 516.42 125.899 516.565 147.593C516.592 151.546 516.86 155.755 517.401 160.241L523.94 152.903V152.897L523.778 140.361L524.622 141.233L529.684 146.461L541.452 133.256L537.982 123.807L546.215 127.912L550.279 123.352L547.974 112.99L555.002 118.056L556.575 116.291L557.47 103.036L562.715 109.403L577.738 92.5461C577.638 90.9077 577.925 89.3569 579.128 88.2922C579.179 88.2469 579.223 88.1993 579.277 88.1555C579.859 87.6883 580.575 87.4207 581.316 87.3243C581.532 87.2971 581.741 87.2763 581.948 87.2613C582.153 87.2469 582.354 87.2408 582.551 87.2393C582.574 87.2393 582.599 87.2371 582.623 87.2371C582.657 87.2371 582.688 87.2408 582.722 87.2413C582.728 87.2413 582.731 87.242 582.735 87.242C582.87 87.2447 582.998 87.253 583.128 87.2609C583.275 87.2688 583.423 87.2771 583.564 87.2934C583.692 87.3077 583.816 87.3285 583.939 87.3482C584.076 87.3705 584.209 87.3924 584.34 87.4207C584.461 87.4483 584.58 87.4797 584.697 87.5118C584.822 87.5454 584.944 87.5806 585.065 87.6207C585.179 87.6596 585.291 87.7019 585.403 87.7457C585.517 87.7911 585.631 87.838 585.741 87.8879C585.849 87.9381 585.955 87.9903 586.06 88.0454C586.165 88.101 586.269 88.1581 586.371 88.2178C586.473 88.279 586.573 88.3414 586.671 88.4072C586.768 88.4707 586.862 88.5383 586.956 88.6071C587.051 88.6771 587.144 88.7496 587.236 88.8245C587.327 88.8978 587.412 88.9737 587.5 89.0513C587.588 89.1302 587.675 89.2108 587.762 89.2943C587.843 89.376 587.924 89.4595 588.002 89.5438C588.085 89.6326 588.168 89.7206 588.247 89.8125C588.322 89.9002 588.395 89.9909 588.467 90.0823C588.544 90.1784 588.621 90.2732 588.695 90.3737C588.765 90.4675 588.83 90.5642 588.897 90.661C588.968 90.7646 589.04 90.867 589.108 90.9739C589.171 91.0726 589.232 91.1735 589.292 91.2744C589.358 91.3859 589.425 91.4948 589.488 91.6077C589.545 91.709 589.598 91.8141 589.653 91.9176C589.716 92.0348 589.779 92.1519 589.838 92.2721C589.86 92.3155 589.88 92.3594 589.902 92.4032L607.265 100.995L609.748 93.1277L615.537 105.084L617.655 106.133L622.279 98.8061L624.016 109.278L629.493 111.988L635.592 105.1L635.909 115.163L651.761 123.004L654.5 116.261L654.958 115.138L659.496 126.824L659.499 126.83L668.309 131.188C653.837 77.5615 616.853 77.82 595.943 82.8146L595.942 82.8144Z" fill="#257349"/>
<path d="M542.961 0L546.903 9.00353L546.909 9.00692L558.368 14.0881L557.226 14.4917L550.363 16.9124L557.454 33.1145L567.49 33.9022L560.325 39.6727L562.774 45.2675L573.155 47.4949L565.619 51.7702L566.568 53.9347L578.241 60.2763L570.267 62.3887L578.021 80.1018C578.038 80.1229 578.054 80.143 578.071 80.1648C578.311 80.4604 578.544 80.7525 578.77 81.0387C578.795 81.0701 578.821 81.1018 578.845 81.1328C579.088 81.4408 579.324 81.7436 579.551 82.0399C579.559 82.0493 579.565 82.06 579.574 82.0693C579.798 82.3626 580.015 82.6503 580.224 82.9307C580.245 82.9591 580.265 82.9866 580.285 83.0135C580.481 83.2773 580.671 83.5343 580.851 83.7856C580.874 83.8155 580.895 83.845 580.917 83.8744C581.101 84.1292 581.277 84.3767 581.447 84.616C581.458 84.6322 581.469 84.6489 581.481 84.6651C581.659 84.9183 581.83 85.164 581.993 85.4002C581.998 85.4078 582.003 85.4158 582.008 85.4248C582.166 85.6531 582.313 85.8722 582.456 86.0828C582.469 86.1024 582.482 86.1214 582.495 86.141C582.629 86.3417 582.756 86.5337 582.875 86.7162C582.881 86.7245 582.888 86.7348 582.893 86.7434C582.9 86.7208 582.907 86.6966 582.913 86.6746C582.94 86.5783 582.968 86.4804 582.997 86.3798C583.007 86.342 583.017 86.3046 583.03 86.2657C583.068 86.1323 583.107 85.9959 583.148 85.8553C583.149 85.8522 583.15 85.8504 583.15 85.8485C583.151 85.8448 583.151 85.8428 583.153 85.8402C583.154 85.8331 583.158 85.8251 583.159 85.8183C583.209 85.6494 583.261 85.4747 583.316 85.2963C583.325 85.263 583.335 85.2312 583.344 85.1981C583.399 85.017 583.456 84.8303 583.517 84.6398C583.53 84.599 583.542 84.5581 583.555 84.5177C583.616 84.3238 583.679 84.1258 583.746 83.9221C583.756 83.8896 583.766 83.8555 583.777 83.823C583.838 83.6367 583.9 83.4466 583.965 83.2523C583.978 83.2116 583.991 83.1715 584.005 83.1306C584.075 82.922 584.147 82.7096 584.221 82.4938C584.24 82.4363 584.261 82.3788 584.28 82.3222C584.355 82.1072 584.43 81.8891 584.51 81.6687C584.53 81.6109 584.55 81.5538 584.572 81.4968C584.644 81.2953 584.717 81.0901 584.793 80.8826C584.81 80.8377 584.826 80.7927 584.843 80.7477C584.928 80.5175 585.015 80.2825 585.105 80.0459C585.132 79.9744 585.16 79.903 585.188 79.8309C585.275 79.5984 585.367 79.3626 585.46 79.1245C585.49 79.0501 585.519 78.9756 585.549 78.9011C585.636 78.6812 585.725 78.459 585.815 78.2348C585.843 78.1664 585.871 78.0988 585.898 78.03C585.991 77.8021 586.088 77.5707 586.185 77.3376C586.218 77.2582 586.251 77.1781 586.285 77.0979C586.392 76.8459 586.502 76.5922 586.612 76.3344C586.647 76.2547 586.682 76.1742 586.717 76.0941C586.832 75.8317 586.949 75.5684 587.068 75.3015C587.094 75.2425 587.122 75.1832 587.148 75.1235C587.256 74.8861 587.365 74.6465 587.478 74.4054C587.514 74.3283 587.549 74.2531 587.584 74.1752C587.711 73.9054 587.839 73.6343 587.971 73.3611C588.013 73.2746 588.054 73.1892 588.096 73.103C588.231 72.8252 588.368 72.5459 588.509 72.2643C588.518 72.2462 588.527 72.2276 588.536 72.2087C593.936 51.2071 593.909 16.3415 542.961 0L542.961 0Z" fill="#5FB451"/>
<path d="M578.071 80.1651C578.311 80.4607 578.544 80.7528 578.77 81.0389C578.795 81.0703 578.822 81.102 578.845 81.1331C579.088 81.4411 579.324 81.7438 579.551 82.0401C579.559 82.0496 579.566 82.0602 579.574 82.0696C579.799 82.3628 580.015 82.6505 580.224 82.9309C580.246 82.9593 580.265 82.9869 580.285 83.0137C580.481 83.2776 580.671 83.5345 580.851 83.7859C580.874 83.8158 580.896 83.8452 580.917 83.8746C581.101 84.1294 581.277 84.377 581.447 84.6162C581.458 84.6324 581.47 84.6491 581.481 84.6654C581.659 84.9186 581.831 85.1642 581.993 85.4005C581.999 85.4081 582.003 85.416 582.009 85.425C582.166 85.6533 582.314 85.8725 582.456 86.083C582.469 86.1027 582.482 86.1216 582.496 86.1412C582.629 86.3419 582.756 86.5339 582.875 86.7164C582.881 86.7247 582.888 86.735 582.894 86.7437C582.9 86.721 582.908 86.6968 582.913 86.6749C582.94 86.5785 582.968 86.4806 582.997 86.3801C583.007 86.3422 583.018 86.3049 583.03 86.266C583.069 86.1326 583.107 85.9961 583.148 85.8555C585.981 68.5647 584.152 50.3111 576.28 34.6787C572.053 26.2874 565.551 18.4177 557.227 14.4919L550.363 16.9127L557.454 33.1147L567.491 33.9024L560.325 39.673L562.774 45.2678L573.156 47.4951L565.619 51.7704L566.568 53.9349L578.241 60.2765L570.267 62.3889L578.021 80.102C578.038 80.1231 578.054 80.1432 578.071 80.1651Z" fill="#9ECC53"/>
<path d="M579.127 88.292L577.894 88.1242L573.598 87.5417C563.412 88.1895 546.26 91.1418 533.417 102.884C533.349 102.946 533.28 103.008 533.212 103.07C523.575 111.982 516.42 125.899 516.564 147.593C516.591 151.546 516.86 155.755 517.4 160.241L523.939 152.903V152.896L523.777 140.361L524.621 141.233L529.684 146.461L541.451 133.256L537.981 123.807L546.214 127.912L550.278 123.352L547.973 112.99L555.001 118.056L556.574 116.29L557.469 103.036L562.714 109.403L577.737 92.5459C577.637 90.9075 577.925 89.3567 579.127 88.292H579.127Z" fill="#9ECC53"/>
<path d="M577.894 88.1242L573.598 87.5417C563.412 88.1895 546.26 91.1418 533.417 102.884C533.349 102.946 533.28 103.008 533.212 103.07C523.575 111.982 516.42 125.899 516.564 147.593C516.591 151.546 516.86 155.755 517.4 160.241L523.939 152.903V152.896L523.777 140.361L524.621 141.233C524.717 132.029 529.157 122.836 535.021 115.495C545.779 102.031 561.289 92.8317 577.894 88.1243V88.1242Z" fill="#5FB451"/>
<path d="M577.894 88.1244L579.127 88.2922C579.178 88.2469 579.222 88.1992 579.276 88.1554C579.858 87.6882 580.574 87.4207 581.315 87.3243C581.531 87.2971 581.741 87.2763 581.947 87.2612C582.153 87.2469 582.353 87.2408 582.55 87.2393C582.667 87.189 582.788 87.1361 582.916 87.0817C582.873 87.0998 582.828 87.1191 582.785 87.1376C582.796 87.0998 582.806 87.0628 582.816 87.0242C569.382 75.1959 552.497 66.9324 534.665 65.4833C533.137 65.3597 531.588 65.2939 530.035 65.2939C522.066 65.2936 513.942 67.0053 507.51 71.2417L506.004 78.3627L523.529 80.7415L529.427 72.5835L530.623 81.7053L536.676 82.5273L543.981 74.8235L543.708 83.4827L546.051 83.8002L557.542 77.1351L555.194 85.0433L573.598 87.5419L577.894 88.1244H577.894Z" fill="#56934C"/>
<path d="M622.463 51.895C605.874 58.6698 592.254 71.6739 583.015 87.0392C583.008 87.0422 583.003 87.0444 582.996 87.0463C585.483 85.985 590.081 84.214 595.942 82.8144L608.796 76.7392L604.17 69.9089L617.137 72.7953L619.275 71.7847L616.401 63.6115L625.69 68.7516L631.214 66.1404L629.599 57.0828L637.687 63.0812L653.674 55.5237L650.089 49.1901C647.163 48.3598 644.102 47.9871 641.002 47.9871C634.725 47.9871 628.285 49.5185 622.463 51.8951L622.463 51.895Z" fill="#56934C"/>
<path d="M595.942 82.8145C590.081 84.2141 585.483 85.9852 582.996 87.0464C582.968 87.0592 582.944 87.0699 582.916 87.0815C582.788 87.136 582.667 87.1889 582.55 87.2391C582.574 87.2391 582.599 87.2369 582.622 87.2369C582.656 87.2369 582.687 87.2406 582.721 87.2411C582.727 87.2411 582.73 87.2418 582.735 87.2418C582.869 87.2445 582.997 87.2528 583.127 87.2607C583.275 87.2687 583.422 87.277 583.563 87.2932C583.691 87.3076 583.815 87.3283 583.938 87.348C584.075 87.3703 584.209 87.3922 584.339 87.4205C584.46 87.4481 584.579 87.4795 584.696 87.5116C584.821 87.5452 584.944 87.5804 585.064 87.6205C585.178 87.6594 585.291 87.7017 585.402 87.7456C585.516 87.7909 585.63 87.8378 585.74 87.8877C585.848 87.9379 585.955 87.9901 586.059 88.0453C586.164 88.1009 586.269 88.1579 586.37 88.2176C586.472 88.2788 586.572 88.3412 586.67 88.407C586.767 88.4705 586.861 88.5381 586.955 88.6069C587.051 88.6769 587.144 88.7494 587.236 88.8243C587.326 88.8976 587.412 88.9735 587.499 89.0511C587.587 89.13 587.675 89.2106 587.761 89.2941C587.843 89.3758 587.923 89.4593 588.002 89.5436C588.084 89.6324 588.167 89.7204 588.247 89.8123C588.321 89.9001 588.394 89.9907 588.466 90.0822C588.544 90.1782 588.621 90.273 588.694 90.3736C588.764 90.4673 588.83 90.5641 588.896 90.6608C588.967 90.7644 589.039 90.8668 589.107 90.9737C589.17 91.0724 589.231 91.1733 589.291 91.2742C589.357 91.3857 589.424 91.4946 589.488 91.6075C589.544 91.7088 589.598 91.8139 589.652 91.9174C589.715 92.0346 589.778 92.1517 589.837 92.2719C589.859 92.3154 589.879 92.3592 589.901 92.4031L607.265 100.995L609.747 93.1276L615.536 105.084L617.655 106.133L622.278 98.8059L624.015 109.278L629.492 111.988L635.591 105.099L635.908 115.162L651.76 123.004L654.499 116.261L654.957 115.138L659.495 126.824L659.498 126.83L668.308 131.188C653.836 77.5613 616.853 77.8198 595.942 82.8144L595.942 82.8145Z" fill="#9ECC53"/>
<path d="M582.996 87.0465C582.968 87.0593 582.944 87.0699 582.916 87.0816C582.788 87.136 582.667 87.1889 582.55 87.2392C582.574 87.2392 582.599 87.2369 582.622 87.2369C582.656 87.2369 582.687 87.2407 582.721 87.2411C600.641 84.8389 619.48 87.409 635.227 96.284C643.411 100.898 650.968 107.763 654.499 116.261L654.957 115.138L659.495 126.824L659.498 126.83L668.309 131.188C653.836 77.5616 616.853 77.8201 595.942 82.8146C590.081 84.2142 585.483 85.9853 582.996 87.0465V87.0465Z" fill="#5FB451"/>
<path d="M267.956 320.552V308.842H323.129V320.552H302.562V376.02H288.523V320.552H267.956Z" fill="#007EB1"/>
<path d="M456.863 308.842H471.066V352.468C471.066 357.367 469.896 361.653 467.556 365.327C465.238 369 461.991 371.865 457.814 373.921C453.638 375.954 448.772 376.971 443.217 376.971C437.641 376.971 432.765 375.954 428.588 373.921C424.411 371.865 421.164 369 418.846 365.327C416.528 361.653 415.369 357.367 415.369 352.468V308.842H429.572V351.255C429.572 353.813 430.13 356.087 431.245 358.077C432.382 360.067 433.978 361.631 436.034 362.768C438.089 363.905 440.484 364.474 443.217 364.474C445.973 364.474 448.367 363.905 450.401 362.768C452.457 361.631 454.042 360.067 455.157 358.077C456.294 356.087 456.863 353.813 456.863 351.255V308.842Z" fill="#007EB1"/>
<path d="M485.2 376.02V308.842H511.704C516.777 308.842 521.107 309.749 524.693 311.564C528.302 313.357 531.046 315.905 532.927 319.207C534.829 322.487 535.78 326.347 535.78 330.786C535.78 335.247 534.818 339.085 532.894 342.3C530.97 345.492 528.181 347.942 524.529 349.647C520.899 351.353 516.504 352.206 511.343 352.206H493.597V340.791H509.047C511.759 340.791 514.011 340.419 515.804 339.676C517.597 338.932 518.931 337.817 519.806 336.33C520.703 334.843 521.151 332.995 521.151 330.786C521.151 328.556 520.703 326.675 519.806 325.144C518.931 323.614 517.586 322.455 515.771 321.667C513.978 320.858 511.715 320.454 508.981 320.454H499.403V376.02H485.2ZM521.479 345.449L538.175 376.02H522.496L506.16 345.449H521.479Z" fill="#007EB1"/>
<path d="M393.531 346.73C393.531 361.66 381.428 373.764 366.498 373.764C351.568 373.764 339.464 361.66 339.464 346.73C339.464 331.8 351.568 319.698 366.498 319.698C381.428 319.698 393.531 331.8 393.531 346.73Z" fill="#FCC521"/>
<path d="M373.965 316.037C374.479 316.912 373.71 317.984 372.717 317.771C370.712 317.342 368.631 317.117 366.497 317.117C364.333 317.117 362.222 317.349 360.189 317.791C359.197 318.006 358.424 316.934 358.937 316.057L364.793 306.05C365.537 304.777 367.378 304.777 368.121 306.05L373.965 316.037L373.965 316.037Z" fill="#FCC521"/>
<path d="M350.076 319.746C351.056 320.003 351.27 321.304 350.419 321.856C348.697 322.971 347.067 324.283 345.558 325.791C344.027 327.322 342.698 328.979 341.573 330.727C341.024 331.581 339.719 331.369 339.463 330.387L336.527 319.17C336.154 317.744 337.454 316.443 338.881 316.816L350.075 319.746H350.076Z" fill="#FCC521"/>
<path d="M335.805 339.263C336.68 338.751 337.751 339.52 337.539 340.512C337.11 342.516 336.885 344.598 336.885 346.73C336.885 348.895 337.117 351.007 337.558 353.04C337.773 354.032 336.701 354.804 335.824 354.291L325.817 348.434C324.545 347.691 324.545 345.851 325.817 345.107L335.805 339.263V339.263Z" fill="#FCC521"/>
<path d="M339.514 363.153C339.77 362.172 341.072 361.959 341.623 362.81C342.738 364.531 344.05 366.162 345.558 367.671C347.089 369.201 348.747 370.53 350.496 371.655C351.35 372.205 351.137 373.509 350.155 373.766L338.938 376.701C337.511 377.074 336.211 375.774 336.584 374.348L339.514 363.153V363.153Z" fill="#FCC521"/>
<path d="M359.029 377.424C358.517 376.549 359.288 375.478 360.278 375.69C362.284 376.118 364.364 376.343 366.498 376.343C368.663 376.343 370.774 376.111 372.806 375.67C373.799 375.455 374.571 376.527 374.059 377.404L368.202 387.411C367.457 388.683 365.618 388.683 364.873 387.411L359.029 377.424H359.029Z" fill="#FCC521"/>
<path d="M382.921 373.714C381.939 373.458 381.726 372.157 382.578 371.605C384.299 370.491 385.929 369.178 387.438 367.67C388.969 366.139 390.298 364.482 391.423 362.733C391.972 361.879 393.277 362.092 393.534 363.074L396.469 374.291C396.843 375.717 395.541 377.018 394.116 376.644L382.921 373.714L382.921 373.714Z" fill="#FCC521"/>
<path d="M397.191 354.198C396.316 354.711 395.245 353.942 395.458 352.951C395.886 350.944 396.111 348.863 396.111 346.73C396.111 344.565 395.879 342.454 395.437 340.421C395.222 339.429 396.296 338.657 397.172 339.169L407.178 345.026C408.451 345.771 408.451 347.61 407.178 348.355L397.191 354.199L397.191 354.198Z" fill="#FCC521"/>
<path d="M393.481 330.307C393.226 331.289 391.924 331.502 391.373 330.651C390.258 328.93 388.947 327.3 387.437 325.79C385.906 324.259 384.25 322.931 382.501 321.806C381.647 321.257 381.86 319.952 382.842 319.695L394.058 316.759C395.484 316.386 396.785 317.687 396.412 319.113L393.481 330.307H393.481Z" fill="#FCC521"/>
</svg>
